<?xml version="1.0" standalone="no"?>
<!DOCTYPE svg PUBLIC "-//W3C//DTD SVG 20010904//EN"
 "http://www.w3.org/TR/2001/REC-SVG-20010904/DTD/svg10.dtd">
<svg version="1.0" xmlns="http://www.w3.org/2000/svg"
 width="540.000000pt" height="447.000000pt" viewBox="0 0 540.000000 447.000000"
 preserveAspectRatio="xMidYMid meet">

<g transform="translate(0.000000,447.000000) scale(0.100000,-0.100000)"
fill="#000000" stroke="none">
<path d="M0 2235 l0 -2235 2700 0 2700 0 0 2235 0 2235 -2700 0 -2700 0 0
-2235z m3079 2045 c228 -35 264 -45 359 -102 131 -77 171 -113 199 -177 14
-31 41 -87 62 -126 l36 -70 5 -186 5 -186 38 -75 c34 -67 37 -78 25 -97 -7
-12 -22 -24 -32 -27 -23 -7 -116 -92 -116 -106 0 -5 -16 -41 -35 -81 -45 -92
-45 -118 -2 -151 80 -61 202 -126 237 -126 20 0 55 -10 78 -22 116 -63 159
-90 171 -110 19 -31 51 -147 51 -188 0 -56 36 -240 58 -300 33 -87 44 -205 47
-485 2 -207 7 -285 23 -380 12 -66 26 -196 32 -290 6 -93 13 -185 17 -203 l5
-32 -61 0 c-78 0 -121 -18 -184 -77 l-50 -47 -53 60 -53 59 -143 0 c-79 1
-151 2 -160 3 -23 3 -23 30 1 56 28 32 126 176 149 221 11 22 32 51 47 65 15
14 34 38 42 54 9 16 32 51 53 77 23 29 43 69 50 101 17 67 21 790 5 785 -14
-5 -24 -111 -33 -354 -4 -116 -10 -214 -14 -218 -8 -9 -24 51 -33 125 -4 30
-13 70 -21 88 -14 33 -14 34 -73 29 -33 -2 -66 -8 -73 -14 -29 -22 -185 -53
-174 -34 4 6 3 11 -3 11 -6 0 -13 -11 -17 -25 -7 -28 -44 -36 -44 -9 0 11 -6
15 -19 11 -24 -6 -46 7 -37 22 4 6 16 11 26 11 23 0 67 19 98 41 12 9 31 15
42 12 11 -3 20 -1 20 5 0 5 7 12 14 15 11 4 13 1 9 -11 -3 -9 7 -2 22 16 14
17 34 32 43 32 8 0 41 12 72 27 53 25 58 30 78 87 12 34 22 71 22 84 0 13 7
30 15 38 8 9 15 24 15 34 0 10 7 20 15 24 29 11 6 180 -30 215 -16 15 -17 12
-10 -56 8 -80 -11 -160 -47 -199 -11 -12 -30 -41 -42 -65 -35 -65 -122 -98
-167 -63 -22 16 -96 37 -112 31 -7 -3 -20 -1 -28 4 -11 7 -11 9 4 9 9 0 17 5
17 11 0 6 -9 8 -20 4 -18 -6 -24 2 -22 26 1 3 -34 4 -77 2 -71 -5 -81 -3 -101
17 -21 21 -21 22 -3 36 10 7 35 17 55 20 21 4 36 10 33 14 -8 13 27 35 94 61
35 13 66 30 68 37 3 6 21 12 40 12 27 0 47 10 84 40 26 23 50 49 53 58 3 9 20
25 37 35 26 15 29 20 18 33 -18 22 -62 14 -74 -13 -5 -13 -14 -23 -18 -23 -5
0 -37 -13 -71 -29 -33 -16 -74 -33 -90 -37 -16 -4 -37 -15 -47 -25 -11 -11
-26 -19 -34 -19 -8 0 -35 -12 -61 -26 -28 -15 -56 -24 -70 -21 -13 2 -24 1
-24 -3 0 -10 -77 -30 -85 -22 -10 10 28 42 50 42 12 0 38 11 57 24 31 21 109
43 131 38 4 -1 6 3 5 9 -3 13 17 26 53 33 14 3 36 15 49 26 13 11 33 20 46 20
26 0 87 47 78 61 -3 5 -1 9 4 9 6 0 1 23 -9 51 -11 28 -18 56 -16 62 1 5 19
-4 38 -21 19 -17 48 -34 65 -38 16 -4 39 -14 52 -22 14 -9 22 -10 22 -3 0 6
-6 11 -12 11 -7 1 -25 19 -41 41 -15 22 -42 49 -60 59 -29 17 -84 83 -113 135
-20 35 -40 29 -56 -17 -8 -24 -18 -51 -23 -60 -5 -13 -1 -20 18 -27 47 -18 89
-115 68 -155 -11 -19 -155 -96 -181 -96 -6 0 -40 -13 -77 -30 -36 -16 -78 -30
-93 -30 -15 0 -36 -10 -50 -25 -15 -16 -34 -25 -55 -25 -17 0 -41 -7 -53 -16
-21 -14 -28 -14 -91 5 -53 16 -97 21 -188 21 -114 1 -202 7 -403 30 -118 13
-296 72 -305 101 -4 11 -20 26 -36 34 -16 9 -29 24 -29 34 0 10 -11 23 -25 29
-33 15 -35 15 -35 -3 0 -17 22 -55 57 -98 12 -15 28 -46 34 -67 7 -22 20 -47
31 -56 10 -10 18 -22 18 -28 0 -6 13 -27 29 -46 15 -19 38 -54 50 -77 12 -24
25 -43 30 -43 4 0 23 -27 40 -60 18 -32 36 -62 41 -65 6 -4 17 -20 26 -37 13
-26 14 -35 3 -54 -7 -13 -20 -24 -30 -24 -18 0 -45 -35 -51 -66 -2 -13 4 -20
20 -22 17 -3 22 -10 22 -32 0 -24 -3 -28 -17 -23 -10 4 -22 12 -28 19 -21 26
-89 16 -78 -12 3 -8 26 -34 50 -59 27 -26 43 -50 40 -59 -4 -9 0 -13 11 -11 9
2 20 4 25 4 4 1 7 7 7 15 0 10 8 12 33 7 31 -7 32 -8 31 -59 -1 -39 2 -52 14
-52 9 0 12 -6 8 -16 -3 -9 -6 -27 -6 -41 0 -23 -3 -25 -28 -20 -15 3 -34 1
-42 -4 -13 -8 -12 -11 3 -20 9 -5 17 -19 17 -29 0 -20 17 -36 28 -26 3 4 0 16
-7 27 -7 12 -9 24 -6 27 4 4 11 -1 16 -11 13 -23 32 -11 23 15 -5 17 -2 19 23
16 18 -2 27 -8 25 -17 -3 -12 0 -12 13 -1 8 7 18 10 22 6 3 -3 1 -6 -5 -6 -7
0 -12 -6 -12 -13 0 -8 10 -13 23 -13 15 1 23 -5 25 -21 2 -12 9 -20 15 -18 19
7 34 -8 44 -45 8 -27 7 -38 -4 -49 -9 -8 -12 -23 -9 -37 4 -16 0 -27 -13 -36
-10 -7 -22 -24 -26 -37 -7 -23 -8 -24 -21 -7 -7 10 -10 24 -7 32 3 8 1 14 -3
14 -5 0 -10 12 -10 26 -2 32 -11 41 -27 25 -7 -7 -13 -44 -14 -89 l-2 -78 49
-19 c28 -11 50 -23 50 -27 0 -4 18 -8 40 -8 36 0 45 6 42 31 -1 4 10 2 23 -5
25 -11 33 -26 14 -26 -5 0 -7 -5 -4 -10 5 -8 11 -7 21 1 8 6 18 9 21 5 4 -4 1
-11 -6 -15 -9 -6 -10 -11 -2 -15 19 -12 31 4 31 39 0 20 6 35 15 39 8 3 15 1
15 -5 0 -6 5 -7 11 -3 6 3 9 15 6 25 -3 11 -1 16 4 13 6 -3 17 0 26 8 13 10
15 10 9 0 -6 -10 -1 -11 18 -6 19 4 26 2 26 -9 0 -8 11 -18 25 -21 14 -4 25
-11 25 -17 0 -5 10 -14 23 -19 17 -7 18 -9 5 -9 -22 -1 -24 -19 -3 -27 8 -4
12 -10 9 -15 -3 -5 6 -9 20 -9 14 0 27 -4 30 -9 8 -12 -89 -33 -119 -25 -13 3
-32 1 -44 -5 -17 -10 -21 -23 -23 -89 l-3 -77 -78 -6 c-66 -6 -86 -12 -120
-37 -23 -16 -52 -45 -65 -63 -30 -44 -40 -47 -48 -12 -4 15 -23 43 -42 61 -43
42 -138 62 -201 44 -21 -7 -75 -12 -119 -12 -75 0 -82 -2 -101 -26 -14 -18
-21 -41 -21 -70 0 -24 -3 -44 -7 -44 -5 0 -21 18 -37 40 -36 49 -84 81 -153
104 -33 11 -54 24 -58 36 -3 11 -16 28 -29 37 -33 26 -43 50 -62 139 -18 89
-24 99 -73 122 -26 13 -37 24 -39 44 -3 23 1 28 25 33 45 10 58 20 61 51 2 16
19 68 38 116 36 93 41 131 24 188 -6 19 -15 59 -20 89 -12 71 -101 205 -215
323 -19 20 -35 41 -35 46 0 5 -33 35 -74 66 -62 48 -81 57 -113 56 -21 -1 -66
2 -99 6 -53 6 -66 4 -90 -14 -16 -11 -39 -23 -51 -27 -18 -5 -20 -2 -16 14 6
24 -25 33 -49 13 -13 -10 -21 -11 -37 -2 -21 11 -29 40 -11 40 20 0 49 40 56
77 4 21 11 43 16 49 5 8 3 14 -8 18 -28 11 -42 7 -47 -14 -3 -12 -14 -20 -25
-20 -24 0 -62 44 -62 71 0 33 18 40 407 165 74 24 89 33 145 91 56 57 194 167
270 216 52 33 170 17 183 -25 8 -24 39 -40 62 -31 10 4 66 49 124 100 126 111
269 273 269 305 0 13 -9 52 -20 86 -11 35 -20 77 -20 93 0 16 -11 86 -25 155
-39 196 -33 429 13 519 35 70 105 165 125 171 12 4 56 23 97 42 41 19 94 44
118 54 43 20 216 45 328 47 34 0 120 -8 193 -19z m166 -2159 c8 -14 -16 -26
-46 -23 -14 2 -31 -4 -39 -13 -15 -19 -40 -3 -40 26 0 16 8 19 59 19 33 0 62
-4 66 -9z m-2405 -121 c7 -12 25 -22 50 -26 52 -8 51 -30 0 -38 -25 -4 -38
-11 -34 -17 3 -6 -2 -17 -12 -24 -22 -17 -38 -19 -29 -5 3 6 -4 10 -17 11
l-23 0 23 10 c24 9 27 46 4 42 -7 -2 -13 2 -13 7 -1 6 -2 16 -3 23 -2 16 15
36 31 37 7 0 17 -9 23 -20z m2618 5 c3 -3 -18 -5 -47 -5 -29 0 -50 -4 -47 -9
3 -4 -7 -8 -21 -7 -14 1 -28 7 -31 15 -3 8 0 11 7 7 6 -4 11 -3 11 2 0 9 118
7 128 -3z m-183 -15 c3 -6 -4 -10 -17 -10 -18 0 -20 2 -8 10 19 12 18 12 25 0z
m-2475 -106 c0 -8 -19 -13 -24 -6 -3 5 1 9 9 9 8 0 15 -2 15 -3z m685 -67 c23
-39 45 -86 45 -98 0 -18 -66 24 -77 49 -36 88 -14 124 32 49z m95 -149 c0 -15
-28 -9 -34 8 -11 30 -6 37 14 19 11 -10 20 -22 20 -27z m715 12 c3 -5 1 -10
-4 -10 -6 0 -11 5 -11 10 0 6 2 10 4 10 3 0 8 -4 11 -10z m-695 -40 c0 -5 -2
-10 -4 -10 -3 0 -8 5 -11 10 -3 6 -1 10 4 10 6 0 11 -4 11 -10z m-103 -40 c14
-11 21 -20 15 -20 -25 0 48 -59 81 -65 41 -8 51 -18 61 -57 9 -37 -9 -77 -39
-88 -22 -8 -30 -5 -65 29 -35 34 -40 44 -40 85 0 32 -5 48 -15 52 -8 4 -15 12
-15 20 0 8 -10 15 -22 15 -21 1 -21 2 -3 6 32 8 39 21 8 15 -25 -5 -27 -4 -14
11 17 21 18 21 48 -3z m-868 -107 c20 -16 43 -32 52 -38 10 -5 37 -23 61 -40
40 -28 157 -86 202 -99 16 -6 18 -13 12 -66 -4 -37 -3 -60 3 -60 10 0 13 10
25 63 5 21 12 27 32 27 39 0 121 -30 140 -51 9 -10 29 -19 43 -19 14 0 58 -11
96 -25 40 -14 93 -25 123 -25 37 0 54 -4 58 -15 4 -8 1 -53 -6 -101 -10 -66
-23 -107 -61 -185 l-48 -99 -78 0 c-56 0 -85 -5 -101 -16 -22 -15 -28 -14 -92
6 -64 20 -75 21 -135 10 -112 -21 -144 2 -95 67 16 21 30 42 30 47 0 4 21 27
47 50 25 22 68 62 95 88 26 26 63 59 82 73 34 26 61 78 50 96 -11 19 -32 6
-94 -58 -36 -36 -88 -81 -117 -99 -28 -19 -54 -43 -58 -54 -4 -11 -19 -27 -35
-35 -26 -14 -28 -18 -20 -41 6 -14 7 -31 3 -37 -5 -7 -13 -28 -18 -47 -8 -26
-20 -40 -47 -52 -46 -22 -48 -26 -58 -103 -7 -56 -15 -73 -74 -156 -36 -51
-66 -96 -66 -102 0 -5 11 -22 25 -39 14 -16 25 -36 25 -43 0 -8 9 -19 20 -25
17 -9 20 -8 20 13 0 13 -7 32 -15 43 -24 32 -18 76 17 122 17 22 35 39 40 36
4 -3 8 -56 8 -117 0 -62 3 -122 6 -134 7 -25 55 -43 117 -43 83 0 99 34 96
207 -1 127 4 156 30 151 14 -3 17 -26 22 -153 5 -130 3 -155 -12 -187 -17 -35
-17 -40 0 -112 l18 -76 -369 0 c-292 0 -368 3 -362 13 10 18 65 93 94 130 14
18 32 46 40 62 8 17 20 37 26 45 20 25 28 70 12 70 -17 0 -155 -173 -229 -288
-21 -32 -22 -32 -101 -32 l-81 0 7 71 c7 80 19 107 86 199 46 63 123 214 137
268 8 32 60 141 78 162 7 8 28 45 48 81 l36 66 -12 127 -11 127 56 112 c31 62
62 126 70 142 9 17 23 44 32 60 9 17 16 38 16 48 0 24 18 21 59 -10z m1726
-53 c3 -5 1 -10 -4 -10 -6 0 -11 5 -11 10 0 6 2 10 4 10 3 0 8 -4 11 -10z
m1495 -70 c0 -6 -16 -24 -35 -41 -19 -17 -35 -35 -35 -40 0 -6 -10 -23 -22
-39 l-21 -29 -29 24 c-16 14 -34 25 -39 25 -5 0 -9 8 -9 19 0 20 25 31 76 31
20 0 39 10 59 30 29 30 55 39 55 20z m-2259 -62 c-5 -90 0 -83 -66 -86 -55 -3
-58 -2 -40 12 19 14 19 15 1 34 -25 29 -13 42 39 42 35 0 45 4 50 21 9 29 19
15 16 -23z m2334 15 c-3 -16 -14 -39 -23 -53 l-17 -25 -3 23 c-2 13 4 32 12
41 9 10 16 23 16 29 0 7 5 12 11 12 7 0 9 -10 4 -27z m-1175 -125 c0 -36 -8
-47 -23 -31 -4 3 -1 13 6 21 10 13 9 14 -3 7 -21 -13 -138 -13 -133 0 2 6 19
9 38 7 21 -3 35 0 35 7 0 6 -5 11 -11 11 -5 0 -8 4 -5 8 3 5 26 9 51 8 l45 0
0 -38z m-35 -38 c3 -5 1 -10 -4 -10 -6 0 -11 5 -11 10 0 6 2 10 4 10 3 0 8 -4
11 -10z m122 -32 c-3 -7 -5 -2 -5 12 0 14 2 19 5 13 2 -7 2 -19 0 -25z m-232
-68 c3 -6 -1 -7 -9 -4 -18 7 -21 14 -7 14 6 0 13 -4 16 -10z m476 -141 c7 -14
17 -19 29 -16 21 5 140 -23 204 -49 22 -8 81 -36 133 -61 l93 -45 0 -49 c0
-27 -4 -49 -10 -49 -5 0 -30 22 -56 49 -37 39 -59 53 -97 62 -62 14 -182 7
-222 -14 -37 -19 -100 -76 -107 -97 -3 -8 -8 -12 -12 -9 -6 6 -7 55 -4 272 1
33 32 38 49 6z m-113 -341 c2 -257 1 -288 -14 -303 -20 -19 -66 -14 -90 10
-14 13 -20 12 -62 -10 -95 -51 -184 -18 -236 87 -51 102 -29 253 46 310 56 42
105 53 158 33 87 -32 80 -37 80 53 0 111 2 114 64 110 l51 -3 3 -287z m-1882
117 c57 -30 64 -31 106 -5 41 25 133 27 166 4 46 -32 52 -61 52 -247 0 -189 0
-187 -55 -187 -55 0 -55 0 -55 164 0 171 -8 199 -55 204 -23 2 -38 -5 -60 -28
-30 -31 -30 -32 -35 -178 l-5 -147 -27 -9 c-18 -7 -35 -6 -53 2 l-25 12 0 147
c0 173 -7 196 -61 201 -26 2 -42 -3 -62 -22 -27 -25 -27 -25 -27 -174 0 -102
-4 -152 -12 -160 -20 -20 -86 -15 -98 7 -15 29 -13 394 2 409 17 17 53 15 89
-4 28 -14 33 -14 56 2 60 39 99 41 159 9z m725 7 c95 -35 139 -99 146 -207 4
-62 1 -76 -24 -125 -22 -43 -40 -62 -83 -88 -51 -31 -60 -33 -123 -29 -88 6
-150 42 -183 107 -28 54 -33 177 -10 231 22 51 98 106 166 120 53 10 61 10
111 -9z m1589 -21 c84 -50 120 -134 102 -237 -27 -164 -171 -238 -325 -166
-55 26 -67 36 -87 78 -28 57 -32 142 -11 217 17 60 83 123 138 132 21 4 43 8
48 10 24 9 93 -9 135 -34z m510 17 c71 -37 80 -64 80 -253 0 -176 -3 -185 -56
-185 -59 0 -64 14 -64 178 0 173 -7 192 -70 192 -51 0 -89 -43 -91 -103 -1
-23 -2 -87 -3 -143 -2 -55 -6 -106 -10 -112 -9 -15 -60 -16 -87 -2 -18 10 -19
23 -19 208 0 141 3 201 12 210 17 17 68 15 89 -4 17 -15 21 -15 61 4 84 39 99
40 158 10z m440 -3 c24 -12 38 -13 78 -3 86 19 82 30 82 -235 0 -288 -7 -314
-92 -358 -49 -25 -184 -27 -231 -3 -47 24 -77 55 -77 80 0 49 41 50 148 3 l53
-23 37 19 c41 23 60 71 42 105 -10 19 -13 19 -40 5 -16 -8 -52 -15 -80 -15
-140 0 -212 131 -169 308 28 113 148 169 249 117z m575 -1 c71 -27 115 -92
123 -181 6 -78 -11 -139 -51 -188 -92 -112 -292 -96 -356 29 -47 91 -38 216
21 291 48 61 170 84 263 49z m-2540 -4 c18 -11 38 -35 44 -52 6 -17 11 -102
11 -194 0 -151 -1 -164 -19 -174 -34 -18 -69 -12 -86 14 -13 20 -16 50 -14
163 4 168 -2 183 -66 183 -38 0 -47 -4 -67 -32 -21 -30 -23 -46 -26 -176 -4
-158 -8 -167 -75 -160 l-32 3 0 215 0 215 30 3 c17 2 45 -4 62 -14 30 -15 35
-16 50 -2 26 22 41 26 102 27 37 1 63 -5 86 -19z m-127 -119 c14 -8 26 -104
16 -133 -8 -27 -50 -23 -58 5 -10 38 -7 112 6 125 14 14 19 15 36 3z m-1020
-29 c2 -13 -3 -25 -13 -28 -22 -9 -29 1 -21 31 8 31 30 28 34 -3z m2558 -9
c-10 -10 -19 5 -10 18 6 11 8 11 12 0 2 -7 1 -15 -2 -18z m-746 -203 c12 -23
6 -40 -15 -40 -16 0 -26 25 -19 45 8 21 21 19 34 -5z m1041 -20 c27 -15 25
-42 -3 -38 -15 2 -24 11 -26 26 -4 25 1 27 29 12z m-53 -100 c12 -12 22 -29
22 -38 0 -31 44 -84 90 -108 l45 -24 -265 0 -265 0 50 34 c28 19 67 45 87 58
26 16 38 30 38 46 0 27 36 44 77 36 16 -2 42 0 58 5 41 13 39 13 63 -9z
m-1897 -127 l33 -38 -37 -3 c-20 -2 -54 -2 -74 0 l-37 3 33 38 c18 20 37 37
41 37 4 0 23 -17 41 -37z m2367 -31 c2 -8 -12 -12 -45 -11 l-48 1 35 13 c39
15 52 14 58 -3z"/>
<path d="M2375 3280 c-3 -5 -1 -10 4 -10 6 0 11 5 11 10 0 6 -2 10 -4 10 -3 0
-8 -4 -11 -10z"/>
<path d="M3001 3090 c-20 -11 -3 -50 26 -61 37 -14 83 -11 83 5 0 24 -88 70
-109 56z"/>
<path d="M3028 2921 c-38 -8 -68 -18 -68 -22 0 -15 70 -23 173 -21 59 2 68 4
65 19 -6 30 -90 42 -170 24z"/>
<path d="M3271 2907 c-15 -19 -4 -27 35 -27 42 0 51 14 18 29 -32 14 -39 14
-53 -2z"/>
<path d="M2151 2521 c-18 -12 -7 -41 16 -41 24 0 65 29 58 41 -8 11 -55 12
-74 0z"/>
<path d="M3840 2499 c0 -25 21 -79 31 -79 15 0 10 34 -11 65 -12 19 -20 24
-20 14z"/>
<path d="M1785 2230 c-15 -17 -15 -21 -1 -48 8 -16 31 -50 49 -74 19 -25 42
-60 51 -79 10 -19 48 -67 85 -107 51 -55 77 -75 104 -82 34 -7 37 -6 37 14 0
35 -38 104 -93 170 -82 99 -170 196 -193 211 -19 12 -24 12 -39 -5z"/>
<path d="M3670 1790 c0 -5 5 -10 11 -10 5 0 7 5 4 10 -3 6 -8 10 -11 10 -2 0
-4 -4 -4 -10z"/>
<path d="M2407 1351 c-3 -12 -1 -21 3 -21 14 0 19 15 11 29 -6 9 -10 7 -14 -8z"/>
<path d="M2360 1310 c0 -11 5 -20 10 -20 6 0 10 9 10 20 0 11 -4 20 -10 20 -5
0 -10 -9 -10 -20z"/>
<path d="M2392 1290 c0 -14 2 -19 5 -12 2 6 2 18 0 25 -3 6 -5 1 -5 -13z"/>
<path d="M820 1910 c0 -5 5 -10 11 -10 5 0 7 5 4 10 -3 6 -8 10 -11 10 -2 0
-4 -4 -4 -10z"/>
<path d="M2696 605 c-21 -20 -30 -40 -36 -85 -19 -136 45 -216 137 -173 41 19
57 69 51 166 -3 61 -7 72 -31 93 -38 32 -86 32 -121 -1z m93 -61 c14 -31 14
-94 1 -128 -11 -30 -40 -34 -63 -8 -28 31 -26 123 3 152 23 23 43 18 59 -16z"/>
<path d="M1677 610 c-14 -11 -31 -37 -38 -57 -14 -43 -7 -140 12 -171 16 -26
81 -54 106 -46 65 21 81 45 84 129 3 85 0 96 -35 131 -40 40 -89 46 -129 14z"/>
<path d="M3223 608 c-11 -13 -26 -34 -33 -48 -19 -35 -17 -129 4 -167 16 -33
61 -63 91 -63 29 0 74 30 90 60 9 18 15 56 15 101 0 67 -2 73 -34 105 -43 43
-100 48 -133 12z m94 -54 c26 -40 24 -127 -4 -155 -27 -28 -48 -20 -68 27 -20
49 -19 82 5 122 24 39 44 41 67 6z"/>
<path d="M4241 607 c-31 -34 -44 -125 -25 -179 21 -60 41 -78 84 -78 67 0 109
79 94 177 -13 89 -100 135 -153 80z"/>
<path d="M4768 603 c-38 -41 -48 -66 -48 -120 0 -132 122 -200 187 -104 18 27
23 48 23 103 0 38 -5 79 -11 91 -32 62 -107 76 -151 30z"/>
</g>
</svg>
